<svg width="32" height="32" viewBox="0 0 32 32" xmlns="http://www.w3.org/2000/svg">
<path d="M28.444 15.5301C28.4437 16.0196 28.1667 16.4669 27.7287 16.6855L4.45731 28.2991C4.01121 28.5217 3.47685 28.4679 3.08411 28.1608C2.69138 27.8537 2.51032 27.348 2.61885 26.8614L5.14991 15.5124L2.63611 4.15954C2.52833 3.67277 2.71015 3.16741 3.10336 2.86089C3.49656 2.55437 4.031 2.50135 4.47676 2.72466L27.7305 14.3736C28.1682 14.5929 28.4444 15.0406 28.444 15.5301ZM7.50952 16.8066L5.73263 24.7739L21.6761 16.8173L7.50952 16.8066ZM21.6781 14.2326L5.74672 6.25176L7.51149 14.2218L21.6781 14.2326Z" fill="#797979"/>
</svg>
