<svg width="56" height="45" viewBox="0 0 56 45" fill="none" xmlns="http://www.w3.org/2000/svg">
<path d="M23.3333 22.5C23.3333 24.5711 25.4226 26.25 28 26.25C30.5773 26.25 32.6666 24.5711 32.6666 22.5C32.6666 20.4289 30.5773 18.75 28 18.75C25.4226 18.75 23.3333 20.4289 23.3333 22.5Z" fill="white"/>
<path d="M23.3333 11.25C23.3333 13.3211 25.4226 15 28 15C30.5773 15 32.6666 13.3211 32.6666 11.25C32.6666 9.17893 30.5773 7.5 28 7.5C25.4226 7.5 23.3333 9.17893 23.3333 11.25Z" fill="white"/>
<path d="M23.3333 33.75C23.3333 35.8211 25.4226 37.5 28 37.5C30.5773 37.5 32.6666 35.8211 32.6666 33.75C32.6666 31.6789 30.5773 30 28 30C25.4226 30 23.3333 31.6789 23.3333 33.75Z" fill="white"/>
</svg>
